# xmcd
#
# Track frame offsets:
#	150
#	36044
#	105981
#	155935
#
# Disc length: 2583 seconds
# Revision: 0
# Processed by: cddbd v1.5.2PL0 Copyright (c) Steve Scherf et al.
# Submitted via: dBpowerAMP V12.0
#
DISCID=290a1504
DTITLE=Tedeschi Trucks Band - Everybody's Talkin'
DYEAR=2012
DGENRE=Blues
TTITLE0=That Did It
TTITLE1=Uptight
TTITLE2=Love Has Something Else to Say
TTITLE3=Wade in the Water
EXTD=
EXTT0=
EXTT1=
EXTT2=
EXTT3=
PLAYORDER=
